<svg xmlns="http://www.w3.org/2000/svg" version="1.1" xmlns:xlink="http://www.w3.org/1999/xlink" xmlns:svgjs="http://svgjs.dev/svgjs" viewBox="0 0 5.42537841796875 5.76716462786883"><g transform="matrix(0.8571428571428572,0,0,0.8571428571428572,0.775054059709821,3.7539829817375745)"><rect width="6.671394364196955" height="6.671394364196955" x="-1.0751228412781648" y="-4.3511646278688305" fill="#ba8437"></rect><g clip-path="url(#SvgjsClipPath23321)"><path d=" M 0 -3.1714150502504985 L 3.1969348915407054 -3.1714150502504985 L 3.1969348915407054 -0.5255198412902073 L 0 -0.5255198412902073 Z" fill="url(#gradient-e0792b94-5ffa-4b9c-9776-e83387e961c8)" transform="matrix(1,0,0,1,0,0)" fill-rule="nonzero" mask="url(#maskedMgText-b1a4b8cd-3645-463e-afcd-9697489acba0)"></path></g><g><path d=" M -0.1065 1.416 Q -0.12 1.416 -0.12 1.407 Q -0.12 1.3995 -0.117 1.3935 Q -0.111 1.383 -0.09 1.3327499999999999 Q -0.069 1.2825 -0.03825 1.20525 Q -0.0075 1.128 0.0285 1.0387499999999998 Q 0.0645 0.9494999999999999 0.099 0.8617499999999999 Q 0.1335 0.7739999999999999 0.162 0.702 Q 0.135 0.7064999999999999 0.114 0.708 Q 0.093 0.7094999999999999 0.084 0.7094999999999999 Q 0.07050000000000001 0.7094999999999999 0.057 0.7004999999999999 Q 0.043500000000000004 0.6914999999999999 0.043500000000000004 0.6764999999999999 Q 0.043500000000000004 0.6629999999999999 0.0615 0.6532499999999999 Q 0.0795 0.6435 0.10125 0.63825 Q 0.123 0.6329999999999999 0.1335 0.6329999999999999 Q 0.15 0.6329999999999999 0.15825 0.6449999999999999 Q 0.1665 0.6569999999999999 0.177 0.6569999999999999 L 0.18 0.6569999999999999 Q 0.1965 0.615 0.20775000000000002 0.5872499999999998 Q 0.219 0.5594999999999999 0.222 0.5474999999999999 Q 0.234 0.5159999999999999 0.255 0.4664999999999999 Q 0.276 0.4169999999999999 0.3015 0.3607499999999999 Q 0.327 0.3044999999999999 0.35475 0.25124999999999986 Q 0.3825 0.19799999999999995 0.40650000000000003 0.15899999999999992 Q 0.429 0.12449999999999994 0.45975 0.08924999999999994 Q 0.4905 0.05399999999999994 0.52725 0.030749999999999944 Q 0.5640000000000001 0.007499999999999951 0.606 0.007499999999999951 Q 0.624 0.007499999999999951 0.6405 0.011249999999999871 Q 0.657 0.014999999999999902 0.672 0.022499999999999853 Q 0.717 0.04799999999999993 0.717 0.09599999999999986 Q 0.717 0.11549999999999994 0.71025 0.13874999999999993 Q 0.7035 0.16199999999999992 0.6915 0.1874999999999999 Q 0.672 0.23099999999999987 0.62775 0.2909999999999999 Q 0.5835 0.35099999999999987 0.52575 0.4154999999999999 Q 0.468 0.4799999999999999 0.40650000000000003 0.5399999999999999 Q 0.34500000000000003 0.5999999999999999 0.28800000000000003 0.6449999999999999 Q 0.327 0.6419999999999999 0.3675 0.63825 Q 0.40800000000000003 0.6344999999999998 0.4485 0.6344999999999998 Q 0.459 0.6344999999999998 0.47025 0.6367499999999999 Q 0.4815 0.6389999999999999 0.4815 0.6435 Q 0.4815 0.6464999999999999 0.47475 0.6502499999999999 Q 0.468 0.6539999999999999 0.4485 0.6599999999999999 Q 0.4365 0.6629999999999999 0.4005 0.6697499999999998 Q 0.3645 0.6764999999999999 0.31725000000000003 0.6824999999999999 Q 0.27 0.6884999999999999 0.2235 0.6944999999999999 Q 0.2025 0.7484999999999999 0.17475000000000002 0.8227499999999999 Q 0.147 0.8969999999999999 0.11925000000000001 0.9727499999999999 Q 0.0915 1.0485 0.069 1.1084999999999998 Q 0.051000000000000004 1.161 0.0465 1.185 Q 0.042 1.2089999999999999 0.042 1.2209999999999999 L 0.042 1.2315 Q 0.042 1.2374999999999998 0.04125 1.2435 Q 0.0405 1.2494999999999998 0.036000000000000004 1.2599999999999998 Q 0.009000000000000001 1.329 0 1.35375 Q -0.009000000000000001 1.3784999999999998 -0.025500000000000002 1.3889999999999998 Q -0.0375 1.395 -0.063 1.4055 Q -0.0885 1.416 -0.1065 1.416 M 0.2445 0.6479999999999999 Q 0.3 0.6059999999999999 0.3585 0.5459999999999999 Q 0.417 0.48599999999999993 0.47250000000000003 0.4177499999999999 Q 0.528 0.3494999999999999 0.57375 0.28349999999999986 Q 0.6195 0.21749999999999992 0.6495 0.16649999999999987 Q 0.675 0.12449999999999994 0.675 0.08699999999999986 Q 0.675 0.046499999999999875 0.6465 0.046499999999999875 Q 0.6225 0.046499999999999875 0.5895 0.0734999999999999 Q 0.561 0.09449999999999992 0.52125 0.14324999999999988 Q 0.4815 0.19199999999999995 0.44325000000000003 0.25124999999999986 Q 0.405 0.3104999999999999 0.3765 0.3629999999999999 Q 0.3435 0.42599999999999993 0.3165 0.4837499999999999 Q 0.2895 0.5414999999999999 0.273 0.57975 Q 0.2565 0.6179999999999999 0.2535 0.6255 Q 0.249 0.6344999999999998 0.2445 0.6479999999999999 M 0.604459716796875 0.9224999999999999 Q 0.562459716796875 0.9224999999999999 0.530959716796875 0.9029999999999999 Q 0.478459716796875 0.8714999999999999 0.478459716796875 0.7889999999999999 Q 0.478459716796875 0.7545 0.490459716796875 0.7094999999999999 Q 0.500959716796875 0.6719999999999999 0.527959716796875 0.6277499999999999 Q 0.554959716796875 0.5834999999999999 0.591709716796875 0.5429999999999999 Q 0.6284597167968751 0.5025 0.6719597167968749 0.4769999999999999 Q 0.715459716796875 0.4514999999999999 0.758959716796875 0.4514999999999999 Q 0.776959716796875 0.4514999999999999 0.790459716796875 0.4559999999999999 Q 0.808459716796875 0.4619999999999999 0.821209716796875 0.4777499999999999 Q 0.8339597167968751 0.4934999999999999 0.8339597167968751 0.5174999999999998 Q 0.8339597167968751 0.5429999999999999 0.821209716796875 0.5459999999999999 Q 0.808459716796875 0.5489999999999999 0.808459716796875 0.5399999999999999 Q 0.808459716796875 0.5369999999999999 0.809209716796875 0.5339999999999999 Q 0.8099597167968751 0.5309999999999999 0.8099597167968751 0.5294999999999999 Q 0.8099597167968751 0.5174999999999998 0.803209716796875 0.5077499999999999 Q 0.796459716796875 0.4979999999999999 0.778459716796875 0.4979999999999999 Q 0.754459716796875 0.4979999999999999 0.719209716796875 0.5234999999999999 Q 0.683959716796875 0.5489999999999999 0.647209716796875 0.5917499999999999 Q 0.610459716796875 0.6344999999999998 0.582709716796875 0.6854999999999999 Q 0.554959716796875 0.7364999999999999 0.545959716796875 0.7874999999999999 Q 0.544459716796875 0.7949999999999999 0.543709716796875 0.80175 Q 0.542959716796875 0.8084999999999999 0.542959716796875 0.816 Q 0.542959716796875 0.8504999999999999 0.558709716796875 0.8737499999999999 Q 0.574459716796875 0.8969999999999999 0.608959716796875 0.8969999999999999 Q 0.650959716796875 0.8969999999999999 0.689959716796875 0.8647499999999999 Q 0.728959716796875 0.8324999999999999 0.7597097167968749 0.7874999999999999 Q 0.790459716796875 0.7424999999999999 0.805459716796875 0.708 Q 0.817459716796875 0.6809999999999999 0.8219597167968751 0.6615 Q 0.826459716796875 0.6419999999999999 0.826459716796875 0.6284999999999998 Q 0.826459716796875 0.6164999999999999 0.8242097167968749 0.6074999999999999 Q 0.8219597167968751 0.5984999999999999 0.818959716796875 0.5924999999999999 Q 0.8159597167968751 0.5834999999999999 0.8159597167968751 0.579 Q 0.8159597167968751 0.567 0.825709716796875 0.5594999999999999 Q 0.835459716796875 0.5519999999999999 0.845959716796875 0.5519999999999999 Q 0.854959716796875 0.5519999999999999 0.865459716796875 0.5579999999999998 Q 0.877459716796875 0.5609999999999999 0.8984597167968751 0.5624999999999999 Q 0.919459716796875 0.5639999999999998 0.943459716796875 0.5639999999999998 Q 0.968959716796875 0.5639999999999998 0.995209716796875 0.5624999999999999 Q 1.0214597167968749 0.5609999999999999 1.0409597167968752 0.5564999999999999 Q 1.043959716796875 0.5549999999999999 1.049959716796875 0.5549999999999999 Q 1.060459716796875 0.5549999999999999 1.060459716796875 0.5609999999999999 Q 1.060459716796875 0.567 1.049959716796875 0.5714999999999999 Q 0.9974597167968751 0.5954999999999999 0.956209716796875 0.597 Q 0.914959716796875 0.5984999999999999 0.884959716796875 0.5984999999999999 Q 0.887959716796875 0.6359999999999999 0.8684597167968751 0.67875 Q 0.848959716796875 0.7214999999999999 0.8279597167968751 0.7545 Q 0.802459716796875 0.7919999999999999 0.7694597167968751 0.831 Q 0.7364597167968749 0.8699999999999999 0.695959716796875 0.8962499999999999 Q 0.655459716796875 0.9224999999999999 0.604459716796875 0.9224999999999999 M 1.1309794921875 0.9224999999999999 Q 1.0889794921875 0.9224999999999999 1.0574794921875 0.9029999999999999 Q 1.0049794921875 0.8714999999999999 1.0049794921875 0.7889999999999999 Q 1.0049794921875 0.7545 1.0169794921875 0.7094999999999999 Q 1.0274794921875 0.6719999999999999 1.0544794921875 0.6277499999999999 Q 1.0814794921875 0.5834999999999999 1.1182294921875 0.5429999999999999 Q 1.1549794921875 0.5025 1.1984794921875 0.4769999999999999 Q 1.2419794921875 0.4514999999999999 1.2854794921875001 0.4514999999999999 Q 1.3034794921875 0.4514999999999999 1.3169794921875 0.4559999999999999 Q 1.3349794921875 0.4619999999999999 1.3477294921875 0.4777499999999999 Q 1.3604794921875 0.4934999999999999 1.3604794921875 0.5174999999999998 Q 1.3604794921875 0.5429999999999999 1.3477294921875 0.5459999999999999 Q 1.3349794921875 0.5489999999999999 1.3349794921875 0.5399999999999999 Q 1.3349794921875 0.5369999999999999 1.3357294921875 0.5339999999999999 Q 1.3364794921875 0.5309999999999999 1.3364794921875 0.5294999999999999 Q 1.3364794921875 0.5174999999999998 1.3297294921875 0.5077499999999999 Q 1.3229794921875 0.4979999999999999 1.3049794921875 0.4979999999999999 Q 1.2809794921875 0.4979999999999999 1.2457294921875 0.5234999999999999 Q 1.2104794921875 0.5489999999999999 1.1737294921875 0.5917499999999999 Q 1.1369794921875 0.6344999999999998 1.1092294921875 0.6854999999999999 Q 1.0814794921875 0.7364999999999999 1.0724794921875 0.7874999999999999 Q 1.0709794921875 0.7949999999999999 1.0702294921875 0.80175 Q 1.0694794921875 0.8084999999999999 1.0694794921875 0.816 Q 1.0694794921875 0.8504999999999999 1.0852294921875 0.8737499999999999 Q 1.1009794921875 0.8969999999999999 1.1354794921875 0.8969999999999999 Q 1.1774794921875 0.8969999999999999 1.2164794921875 0.8647499999999999 Q 1.2554794921874999 0.8324999999999999 1.2862294921875 0.7874999999999999 Q 1.3169794921875 0.7424999999999999 1.3319794921875001 0.708 Q 1.3439794921875001 0.6809999999999999 1.3484794921875 0.6615 Q 1.3529794921875 0.6419999999999999 1.3529794921875 0.6284999999999998 Q 1.3529794921875 0.6164999999999999 1.3507294921875 0.6074999999999999 Q 1.3484794921875 0.5984999999999999 1.3454794921875 0.5924999999999999 Q 1.3424794921875 0.5834999999999999 1.3424794921875 0.579 Q 1.3424794921875 0.567 1.3522294921875 0.5594999999999999 Q 1.3619794921875 0.5519999999999999 1.3724794921874999 0.5519999999999999 Q 1.3814794921875 0.5519999999999999 1.3919794921875 0.5579999999999998 Q 1.4039794921875 0.5609999999999999 1.4249794921875 0.5624999999999999 Q 1.4459794921875 0.5639999999999998 1.4699794921875 0.5639999999999998 Q 1.4954794921875 0.5639999999999998 1.5217294921875 0.5624999999999999 Q 1.5479794921874999 0.5609999999999999 1.5674794921875002 0.5564999999999999 Q 1.5704794921875 0.5549999999999999 1.5764794921875 0.5549999999999999 Q 1.5869794921875 0.5549999999999999 1.5869794921875 0.5609999999999999 Q 1.5869794921875 0.567 1.5764794921875 0.5714999999999999 Q 1.5239794921875 0.5954999999999999 1.4827294921875 0.597 Q 1.4414794921875 0.5984999999999999 1.4114794921875 0.5984999999999999 Q 1.4144794921875001 0.6359999999999999 1.3949794921875 0.67875 Q 1.3754794921875 0.7214999999999999 1.3544794921875 0.7545 Q 1.3289794921875 0.7919999999999999 1.2959794921875 0.831 Q 1.2629794921875 0.8699999999999999 1.2224794921875 0.8962499999999999 Q 1.1819794921875 0.9224999999999999 1.1309794921875 0.9224999999999999 M 1.942499267578125 1.0695 Q 1.903499267578125 1.0635 1.886999267578125 1.032 Q 1.8704992675781251 1.0005 1.8704992675781251 0.954 Q 1.8704992675781251 0.8985 1.886249267578125 0.8339999999999999 Q 1.901999267578125 0.7694999999999999 1.922999267578125 0.7124999999999999 Q 1.943999267578125 0.6555 1.955999267578125 0.6255 Q 1.921499267578125 0.6659999999999999 1.877249267578125 0.714 Q 1.832999267578125 0.7619999999999999 1.784999267578125 0.8054999999999999 Q 1.736999267578125 0.8489999999999999 1.692749267578125 0.8767499999999999 Q 1.648499267578125 0.9045 1.615499267578125 0.9045 Q 1.591499267578125 0.9045 1.564499267578125 0.8902499999999999 Q 1.537499267578125 0.8759999999999999 1.520999267578125 0.8534999999999999 Q 1.498499267578125 0.8234999999999999 1.498499267578125 0.7919999999999999 Q 1.498499267578125 0.7515 1.526249267578125 0.708 Q 1.553999267578125 0.6644999999999999 1.598249267578125 0.6232499999999999 Q 1.642499267578125 0.5819999999999999 1.692749267578125 0.5482499999999999 Q 1.742999267578125 0.5145 1.7887492675781251 0.4912499999999999 Q 1.834499267578125 0.4679999999999999 1.862999267578125 0.4604999999999999 Q 1.877999267578125 0.4574999999999999 1.8944992675781251 0.4544999999999999 Q 1.9109992675781249 0.4514999999999999 1.9289992675781251 0.4514999999999999 Q 1.951499267578125 0.4514999999999999 1.973999267578125 0.45674999999999993 Q 1.996499267578125 0.4619999999999999 2.011499267578125 0.4739999999999999 L 2.017499267578125 0.4784999999999999 Q 2.053499267578125 0.3959999999999999 2.0969992675781253 0.3112499999999999 Q 2.140499267578125 0.22649999999999992 2.1899992675781252 0.15599999999999992 Q 2.239499267578125 0.08549999999999991 2.294999267578125 0.042749999999999844 Q 2.350499267578125 -1.1102230246251565e-16 2.410499267578125 -1.1102230246251565e-16 Q 2.417999267578125 -1.1102230246251565e-16 2.4254992675781253 0.0007499999999999174 Q 2.432999267578125 0.0014999999999999458 2.438999267578125 0.0029999999999998916 Q 2.476499267578125 0.010499999999999843 2.492249267578125 0.029249999999999887 Q 2.507999267578125 0.04799999999999993 2.507999267578125 0.0734999999999999 Q 2.507999267578125 0.09149999999999991 2.501249267578125 0.1117499999999999 Q 2.4944992675781252 0.1319999999999999 2.482499267578125 0.15149999999999986 Q 2.449499267578125 0.20999999999999985 2.396249267578125 0.2669999999999999 Q 2.342999267578125 0.32399999999999995 2.279999267578125 0.37724999999999986 Q 2.216999267578125 0.4304999999999999 2.154749267578125 0.4799999999999999 Q 2.092499267578125 0.5294999999999999 2.041499267578125 0.573 Q 2.018999267578125 0.6255 1.996499267578125 0.696 Q 1.973999267578125 0.7665 1.958999267578125 0.816 Q 1.949999267578125 0.8519999999999999 1.944749267578125 0.8835 Q 1.939499267578125 0.9149999999999999 1.939499267578125 0.942 Q 1.939499267578125 0.9914999999999999 1.957499267578125 1.023 Q 1.972499267578125 1.047 1.994999267578125 1.047 Q 2.011499267578125 1.047 2.024999267578125 1.035 Q 2.030999267578125 1.032 2.0362492675781247 1.0274999999999999 Q 2.041499267578125 1.023 2.0489992675781252 1.0185 Q 2.057999267578125 1.014 2.063999267578125 1.014 Q 2.074499267578125 1.014 2.065499267578125 1.0305 Q 2.060999267578125 1.035 2.054999267578125 1.04175 Q 2.0489992675781252 1.0485 2.041499267578125 1.0559999999999998 Q 2.030999267578125 1.0635 2.009999267578125 1.0679999999999998 Q 1.9889992675781252 1.0725 1.967999267578125 1.0725 Q 1.961999267578125 1.0725 1.955249267578125 1.07175 Q 1.948499267578125 1.071 1.942499267578125 1.0695 M 2.086499267578125 0.48749999999999993 Q 2.146499267578125 0.4469999999999999 2.216999267578125 0.38624999999999987 Q 2.287499267578125 0.3254999999999999 2.348999267578125 0.2557499999999999 Q 2.410499267578125 0.18599999999999994 2.443499267578125 0.12299999999999989 Q 2.462999267578125 0.08699999999999986 2.462999267578125 0.06599999999999995 Q 2.462999267578125 0.04049999999999987 2.440499267578125 0.04049999999999987 Q 2.419499267578125 0.04049999999999987 2.384999267578125 0.06449999999999989 Q 2.2844992675781253 0.14249999999999985 2.215499267578125 0.24974999999999992 Q 2.146499267578125 0.3569999999999999 2.086499267578125 0.48749999999999993 M 1.573499267578125 0.8684999999999999 Q 1.580999267578125 0.8775 1.592999267578125 0.8775 Q 1.615499267578125 0.8775 1.646249267578125 0.8579999999999999 Q 1.676999267578125 0.8384999999999999 1.687499267578125 0.828 Q 1.763999267578125 0.7665 1.841249267578125 0.6952499999999999 Q 1.918499267578125 0.6239999999999999 1.985999267578125 0.5519999999999999 Q 1.991999267578125 0.5385 1.996499267578125 0.5257499999999999 Q 2.000999267578125 0.5129999999999999 2.006999267578125 0.5009999999999999 Q 1.984499267578125 0.4919999999999999 1.954499267578125 0.4919999999999999 Q 1.8944992675781251 0.4919999999999999 1.822499267578125 0.5309999999999999 Q 1.750499267578125 0.5699999999999998 1.693499267578125 0.6224999999999998 Q 1.675499267578125 0.6375 1.644749267578125 0.6742499999999999 Q 1.613999267578125 0.7109999999999999 1.588499267578125 0.7545 Q 1.562999267578125 0.7979999999999999 1.562999267578125 0.8339999999999999 Q 1.562999267578125 0.8534999999999999 1.573499267578125 0.8684999999999999 M 2.800568115234375 0.9224999999999999 Q 2.773568115234375 0.9269999999999999 2.746568115234375 0.9269999999999999 Q 2.680568115234375 0.9269999999999999 2.637068115234375 0.8955 Q 2.593568115234375 0.8639999999999999 2.593568115234375 0.8039999999999999 Q 2.593568115234375 0.7679999999999999 2.614568115234375 0.7169999999999999 Q 2.629568115234375 0.6824999999999999 2.670068115234375 0.6375 Q 2.710568115234375 0.5924999999999999 2.764568115234375 0.54975 Q 2.818568115234375 0.5069999999999999 2.874068115234375 0.4792499999999999 Q 2.929568115234375 0.4514999999999999 2.974568115234375 0.4514999999999999 Q 2.991068115234375 0.4514999999999999 3.004568115234375 0.4559999999999999 Q 3.021068115234375 0.4619999999999999 3.033068115234375 0.4724999999999999 Q 3.045068115234375 0.48299999999999993 3.045068115234375 0.5039999999999999 Q 3.045068115234375 0.5085 3.045068115234375 0.5129999999999999 Q 3.045068115234375 0.5174999999999998 3.042068115234375 0.5234999999999999 Q 3.042068115234375 0.5279999999999999 3.035318115234375 0.5429999999999999 Q 3.028568115234375 0.5579999999999998 3.020318115234375 0.5692499999999999 Q 3.012068115234375 0.5804999999999999 3.006068115234375 0.5744999999999999 Q 3.000068115234375 0.5699999999999998 3.000068115234375 0.5624999999999999 Q 3.000068115234375 0.5549999999999999 3.003818115234375 0.5452499999999999 Q 3.007568115234375 0.5354999999999999 3.007568115234375 0.5279999999999999 Q 3.007568115234375 0.5174999999999998 3.002318115234375 0.5077499999999999 Q 2.997068115234375 0.4979999999999999 2.985068115234375 0.4979999999999999 Q 2.956568115234375 0.4979999999999999 2.911568115234375 0.5234999999999999 Q 2.866568115234375 0.5489999999999999 2.819318115234375 0.5917499999999999 Q 2.772068115234375 0.6344999999999998 2.734568115234375 0.6854999999999999 Q 2.697068115234375 0.7364999999999999 2.682068115234375 0.7874999999999999 Q 2.677568115234375 0.7994999999999999 2.676068115234375 0.8107499999999999 Q 2.674568115234375 0.822 2.674568115234375 0.8324999999999999 Q 2.674568115234375 0.8654999999999999 2.696318115234375 0.8797499999999999 Q 2.718068115234375 0.8939999999999999 2.749568115234375 0.8939999999999999 Q 2.784068115234375 0.8939999999999999 2.820068115234375 0.8835 Q 2.922068115234375 0.8534999999999999 2.985818115234375 0.8009999999999999 Q 3.0495681152343748 0.7484999999999999 3.114068115234375 0.6659999999999999 Q 3.1200681152343748 0.6584999999999999 3.124568115234375 0.6599999999999999 Q 3.129068115234375 0.6615 3.1320681152343752 0.6615 Q 3.136568115234375 0.6629999999999999 3.136568115234375 0.6704999999999999 Q 3.136568115234375 0.6734999999999999 3.135068115234375 0.6779999999999999 Q 3.1335681152343753 0.6824999999999999 3.1320681152343752 0.6854999999999999 Q 3.067568115234375 0.7725 2.989568115234375 0.8377499999999999 Q 2.911568115234375 0.9029999999999999 2.800568115234375 0.9224999999999999 M 3.510085693359375 0.9209999999999999 Q 3.484585693359375 0.9209999999999999 3.462835693359375 0.9089999999999999 Q 3.441085693359375 0.8969999999999999 3.430585693359375 0.8639999999999999 Q 3.426085693359375 0.8504999999999999 3.426085693359375 0.8264999999999999 Q 3.426085693359375 0.7934999999999999 3.435085693359375 0.7529999999999999 Q 3.444085693359375 0.7124999999999999 3.454585693359375 0.6839999999999999 Q 3.447085693359375 0.6869999999999999 3.426835693359375 0.7102499999999999 Q 3.406585693359375 0.7334999999999999 3.377335693359375 0.7657499999999999 Q 3.348085693359375 0.7979999999999999 3.312835693359375 0.8302499999999999 Q 3.277585693359375 0.8624999999999999 3.240085693359375 0.8835 Q 3.202585693359375 0.9045 3.166585693359375 0.9045 Q 3.142585693359375 0.9045 3.115585693359375 0.8902499999999999 Q 3.088585693359375 0.8759999999999999 3.072085693359375 0.8534999999999999 Q 3.049585693359375 0.8234999999999999 3.049585693359375 0.7919999999999999 Q 3.049585693359375 0.7515 3.077335693359375 0.708 Q 3.105085693359375 0.6644999999999999 3.149335693359375 0.6232499999999999 Q 3.193585693359375 0.5819999999999999 3.243835693359375 0.5482499999999999 Q 3.294085693359375 0.5145 3.339835693359375 0.4912499999999999 Q 3.385585693359375 0.4679999999999999 3.414085693359375 0.4604999999999999 Q 3.444085693359375 0.4514999999999999 3.481585693359375 0.4514999999999999 Q 3.502585693359375 0.4514999999999999 3.525085693359375 0.45674999999999993 Q 3.547585693359375 0.4619999999999999 3.562585693359375 0.4739999999999999 Q 3.574585693359375 0.4799999999999999 3.582085693359375 0.4904999999999999 Q 3.589585693359375 0.5009999999999999 3.589585693359375 0.5129999999999999 Q 3.589585693359375 0.5249999999999999 3.579085693359375 0.5205 Q 3.567085693359375 0.5025 3.546835693359375 0.4972499999999999 Q 3.526585693359375 0.4919999999999999 3.505585693359375 0.4919999999999999 Q 3.445585693359375 0.4919999999999999 3.373585693359375 0.5309999999999999 Q 3.301585693359375 0.5699999999999998 3.244585693359375 0.6224999999999998 Q 3.226585693359375 0.6375 3.195835693359375 0.6742499999999999 Q 3.165085693359375 0.7109999999999999 3.139585693359375 0.7545 Q 3.114085693359375 0.7979999999999999 3.114085693359375 0.8339999999999999 Q 3.114085693359375 0.8534999999999999 3.124585693359375 0.8684999999999999 Q 3.130585693359375 0.8789999999999999 3.144085693359375 0.8789999999999999 Q 3.165085693359375 0.8789999999999999 3.200335693359375 0.8564999999999999 Q 3.235585693359375 0.8339999999999999 3.273085693359375 0.80175 Q 3.310585693359375 0.7694999999999999 3.341335693359375 0.7394999999999999 Q 3.372085693359375 0.7094999999999999 3.385585693359375 0.696 Q 3.393085693359375 0.6884999999999999 3.414835693359375 0.6652499999999999 Q 3.4365856933593752 0.6419999999999999 3.462085693359375 0.615 Q 3.487585693359375 0.5879999999999999 3.507835693359375 0.5684999999999999 Q 3.528085693359375 0.5489999999999999 3.534085693359375 0.5489999999999999 Q 3.541585693359375 0.5489999999999999 3.558835693359375 0.5527499999999999 Q 3.576085693359375 0.5564999999999999 3.5880856933593748 0.5639999999999998 Q 3.6000856933593752 0.5714999999999999 3.592585693359375 0.5834999999999999 Q 3.5535856933593752 0.6404999999999998 3.5303356933593752 0.7027499999999999 Q 3.5070856933593753 0.7649999999999999 3.502585693359375 0.8009999999999999 Q 3.501085693359375 0.8069999999999999 3.501085693359375 0.8122499999999999 Q 3.501085693359375 0.8174999999999999 3.501085693359375 0.8234999999999999 Q 3.501085693359375 0.8835 3.543085693359375 0.8835 Q 3.565585693359375 0.8835 3.603085693359375 0.8564999999999999 Q 3.640585693359375 0.8294999999999999 3.679585693359375 0.7919999999999999 Q 3.7185856933593753 0.7545 3.750835693359375 0.71925 Q 3.783085693359375 0.6839999999999999 3.795085693359375 0.6659999999999999 Q 3.799585693359375 0.6615 3.804085693359375 0.6615 Q 3.810085693359375 0.6615 3.814585693359375 0.66675 Q 3.819085693359375 0.6719999999999999 3.814585693359375 0.6794999999999999 Q 3.798085693359375 0.7064999999999999 3.766585693359375 0.7439999999999999 Q 3.735085693359375 0.7814999999999999 3.696085693359375 0.819 Q 3.657085693359375 0.8564999999999999 3.619585693359375 0.8835 Q 3.6000856933593752 0.8985 3.570085693359375 0.90975 Q 3.540085693359375 0.9209999999999999 3.510085693359375 0.9209999999999999 M 3.969090087890625 0.9239999999999999 Q 3.943590087890625 0.9239999999999999 3.924090087890625 0.91275 Q 3.9045900878906252 0.9015 3.897090087890625 0.8699999999999999 Q 3.8925900878906248 0.8534999999999999 3.8925900878906248 0.837 Q 3.8925900878906248 0.7919999999999999 3.915840087890625 0.74925 Q 3.939090087890625 0.7064999999999999 3.970590087890625 0.6697499999999998 Q 4.002090087890625 0.6329999999999999 4.024590087890625 0.6074999999999999 Q 4.036590087890625 0.5954999999999999 4.052340087890625 0.5759999999999998 Q 4.068090087890625 0.5564999999999999 4.068090087890625 0.5369999999999999 Q 4.068090087890625 0.5249999999999999 4.056090087890625 0.5137499999999999 Q 4.044090087890625 0.5025 4.012590087890625 0.4979999999999999 Q 3.994590087890625 0.4949999999999999 3.978840087890625 0.4927499999999999 Q 3.963090087890625 0.4904999999999999 3.946590087890625 0.4904999999999999 Q 3.9045900878906252 0.5474999999999999 3.864840087890625 0.6052499999999998 Q 3.825090087890625 0.6629999999999999 3.780090087890625 0.7184999999999999 Q 3.769590087890625 0.7289999999999999 3.762090087890625 0.7289999999999999 Q 3.753090087890625 0.7289999999999999 3.753090087890625 0.72 Q 3.753090087890625 0.7109999999999999 3.762090087890625 0.702 Q 3.843090087890625 0.603 3.901590087890625 0.4904999999999999 Q 3.894090087890625 0.4904999999999999 3.879090087890625 0.4897499999999999 Q 3.864090087890625 0.48899999999999993 3.855090087890625 0.48749999999999993 Q 3.844590087890625 0.48449999999999993 3.838590087890625 0.4784999999999999 Q 3.832590087890625 0.4724999999999999 3.832590087890625 0.4664999999999999 Q 3.832590087890625 0.4574999999999999 3.840090087890625 0.4559999999999999 Q 3.859590087890625 0.4499999999999999 3.882090087890625 0.4379999999999999 Q 3.9045900878906252 0.42599999999999993 3.924090087890625 0.4064999999999999 Q 3.945090087890625 0.38549999999999995 3.963090087890625 0.36224999999999985 Q 3.981090087890625 0.33899999999999986 3.991590087890625 0.32699999999999996 Q 4.002090087890625 0.3194999999999999 4.014090087890625 0.3194999999999999 Q 4.021590087890625 0.3194999999999999 4.028340087890625 0.32399999999999995 Q 4.035090087890625 0.3284999999999999 4.035090087890625 0.3374999999999999 Q 4.035090087890625 0.34799999999999986 4.026090087890625 0.36449999999999994 Q 4.012590087890625 0.38549999999999995 3.996840087890625 0.4109999999999999 Q 3.981090087890625 0.4364999999999999 3.967590087890625 0.4574999999999999 Q 3.994590087890625 0.4589999999999999 4.021590087890625 0.4604999999999999 Q 4.048590087890625 0.4619999999999999 4.077090087890625 0.4619999999999999 Q 4.092090087890625 0.4619999999999999 4.106340087890625 0.4612499999999999 Q 4.120590087890625 0.4604999999999999 4.135590087890625 0.4604999999999999 Q 4.180590087890625 0.4604999999999999 4.180590087890625 0.48299999999999993 Q 4.180590087890625 0.4979999999999999 4.164840087890625 0.5197499999999999 Q 4.149090087890625 0.5414999999999999 4.126590087890625 0.567 Q 4.075590087890625 0.6255 4.039590087890625 0.69 Q 4.003590087890625 0.7545 3.991590087890625 0.7889999999999999 Q 3.979590087890625 0.825 3.979590087890625 0.843 Q 3.979590087890625 0.8789999999999999 4.008090087890625 0.8789999999999999 Q 4.033590087890625 0.8789999999999999 4.070340087890625 0.8534999999999999 Q 4.107090087890625 0.828 4.146090087890625 0.7912499999999999 Q 4.185090087890625 0.7545 4.216590087890625 0.71925 Q 4.248090087890625 0.6839999999999999 4.2615900878906245 0.6659999999999999 Q 4.264590087890625 0.6615 4.270590087890625 0.6615 Q 4.276590087890625 0.6615 4.281090087890625 0.66675 Q 4.2855900878906255 0.6719999999999999 4.281090087890625 0.6794999999999999 Q 4.264590087890625 0.7049999999999998 4.233090087890625 0.74325 Q 4.201590087890625 0.7814999999999999 4.162590087890625 0.819 Q 4.123590087890625 0.8564999999999999 4.086090087890625 0.8835 Q 4.066590087890625 0.8985 4.032840087890625 0.9112499999999999 Q 3.9990900878906253 0.9239999999999999 3.969090087890625 0.9239999999999999 M 4.31562890625 0.9209999999999999 Q 4.28862890625 0.9209999999999999 4.26687890625 0.9089999999999999 Q 4.24512890625 0.8969999999999999 4.23462890625 0.8639999999999999 Q 4.23312890625 0.8594999999999999 4.23237890625 0.8549999999999999 Q 4.23162890625 0.8504999999999999 4.23162890625 0.8444999999999999 Q 4.23162890625 0.8144999999999999 4.24512890625 0.7694999999999999 Q 4.25862890625 0.7244999999999999 4.27812890625 0.6824999999999999 Q 4.26912890625 0.6944999999999999 4.25712890625 0.7117499999999999 Q 4.24512890625 0.7289999999999999 4.22262890625 0.7559999999999999 Q 4.21662890625 0.7619999999999999 4.20912890625 0.7619999999999999 Q 4.19862890625 0.7619999999999999 4.19862890625 0.7499999999999999 Q 4.19862890625 0.7409999999999999 4.20462890625 0.7349999999999999 Q 4.24362890625 0.6854999999999999 4.27437890625 0.6464999999999999 Q 4.30512890625 0.6074999999999999 4.32012890625 0.5804999999999999 Q 4.32012890625 0.5774999999999999 4.32912890625 0.56175 Q 4.33812890625 0.5459999999999999 4.35312890625 0.5174999999999998 Q 4.34112890625 0.5189999999999999 4.33287890625 0.5197499999999999 Q 4.32462890625 0.5205 4.31862890625 0.5205 Q 4.30812890625 0.5205 4.30062890625 0.5114999999999998 Q 4.29312890625 0.5025 4.29912890625 0.48899999999999993 Q 4.30662890625 0.4679999999999999 4.33212890625 0.4649999999999999 Q 4.35762890625 0.4619999999999999 4.37712890625 0.4604999999999999 Q 4.37862890625 0.4574999999999999 4.38312890625 0.4574999999999999 Q 4.40112890625 0.42449999999999993 4.41762890625 0.3929999999999999 Q 4.43412890625 0.36149999999999993 4.44537890625 0.3404999999999999 Q 4.45662890625 0.3194999999999999 4.45662890625 0.31799999999999995 Q 4.48662890625 0.2699999999999999 4.49562890625 0.25424999999999986 Q 4.50462890625 0.23849999999999993 4.51962890625 0.23549999999999993 Q 4.53612890625 0.23399999999999987 4.55487890625 0.23699999999999988 Q 4.57362890625 0.23999999999999988 4.57962890625 0.25049999999999994 Q 4.58412890625 0.25649999999999995 4.58412890625 0.26549999999999996 Q 4.58412890625 0.2789999999999999 4.57812890625 0.29174999999999995 Q 4.57212890625 0.3044999999999999 4.56612890625 0.31199999999999994 Q 4.56012890625 0.3224999999999999 4.55037890625 0.32624999999999993 Q 4.54062890625 0.32999999999999985 4.53312890625 0.34499999999999986 Q 4.51812890625 0.37349999999999994 4.50012890625 0.4064999999999999 Q 4.48212890625 0.4394999999999999 4.46262890625 0.4694999999999999 L 4.48062890625 0.4679999999999999 Q 4.51662890625 0.4649999999999999 4.54887890625 0.4604999999999999 Q 4.58112890625 0.4559999999999999 4.62312890625 0.4574999999999999 Q 4.63062890625 0.4574999999999999 4.6388789062499995 0.4597499999999999 Q 4.64712890625 0.4619999999999999 4.64712890625 0.4664999999999999 Q 4.64712890625 0.4724999999999999 4.60812890625 0.48299999999999993 Q 4.59312890625 0.48899999999999993 4.54287890625 0.4957499999999999 Q 4.49262890625 0.5025 4.44012890625 0.5085 Q 4.42512890625 0.5369999999999999 4.41312890625 0.55575 Q 4.40112890625 0.5744999999999999 4.39662890625 0.5834999999999999 Q 4.36362890625 0.6524999999999999 4.33737890625 0.7087499999999999 Q 4.31112890625 0.7649999999999999 4.30812890625 0.8009999999999999 Q 4.30662890625 0.8069999999999999 4.30662890625 0.8122499999999999 Q 4.30662890625 0.8174999999999999 4.30662890625 0.8234999999999999 Q 4.30662890625 0.8835 4.34562890625 0.8835 Q 4.36962890625 0.8835 4.40712890625 0.85725 Q 4.44462890625 0.831 4.48362890625 0.79275 Q 4.5226289062500005 0.7545 4.55487890625 0.71925 Q 4.58712890625 0.6839999999999999 4.59912890625 0.6659999999999999 Q 4.60362890625 0.6615 4.60812890625 0.6615 Q 4.61412890625 0.6615 4.61787890625 0.6659999999999999 Q 4.62162890625 0.6704999999999999 4.61862890625 0.6779999999999999 Q 4.60512890625 0.7034999999999999 4.57287890625 0.7417499999999999 Q 4.54062890625 0.7799999999999999 4.50087890625 0.8182499999999999 Q 4.46112890625 0.8564999999999999 4.42362890625 0.8835 Q 4.40412890625 0.8985 4.37487890625 0.90975 Q 4.34562890625 0.9209999999999999 4.31562890625 0.9209999999999999" fill="#09250f" fill-rule="nonzero"></path></g><g></g></g><defs><clipPath id="SvgjsClipPath23321"><path d=" M 0 -3.4469348915407054 h 3.1969348915407054 v 3.1969348915407054 h -3.1969348915407054 Z"></path></clipPath><linearGradient id="gradient-e0792b94-5ffa-4b9c-9776-e83387e961c8" x1="0" x2="1" y1="0" y2="1"><stop stop-color="#8c1627" offset="0"></stop><stop stop-color="#0e0904" offset="1"></stop></linearGradient><mask id="maskedMgText-b1a4b8cd-3645-463e-afcd-9697489acba0"><path d=" M 2.899955624791031 -2.2837061542419335 C 3.0868004845271284 -2.1606081762431586 3.1969348915407054 -2.010799807225561 3.1969348915407054 -1.848507407456497 C 3.1969348915407054 -1.6862150076874334 3.0868004845271284 -1.5360070218083934 2.899955624791031 -1.4132287372987724 L 2.899955624791031 -1.0664731942878096 L 2.7000512860229913 -1.0664731942878096 L 2.7000512860229913 -0.8383718897763803 L 2.19653404060533 -0.8383718897763803 C 2.034529364976505 -0.6435666621603477 1.8264408728861206 -0.5255198412902073 1.5984674457703527 -0.5255198412902073 C 1.370494018654585 -0.5255198412902073 1.1618940169815541 -0.6435666621603477 1.000416835609833 -0.8383718897763806 L 0.49689959019217184 -0.8383718897763806 L 0.49689959019217184 -1.0664731942878103 L 0.29691532805184306 -1.0664731942878103 L 0.29691532805184306 -1.4132287372987722 C 0.11029425375815438 -1.536182853227428 0 -1.686438793129841 0 -1.848619300177701 C 0 -2.010799807225561 0.11002251429237342 -2.1609918084301434 0.29691532805184306 -2.283834031637595 L 0.29691532805184306 -2.6305895746485572 L 0.4968196668198834 -2.6305895746485572 L 0.4968196668198834 -2.8585470170898675 L 1.0003369122375445 -2.8585470170898675 C 1.1619739403538425 -3.0535600454738505 1.370238263863262 -3.1714150502504985 1.5984674457703527 -3.1714150502504985 C 1.826696627677444 -3.1714150502504985 2.034992920535778 -3.0535600454738505 2.19653404060533 -2.8585470170898675 L 2.7000512860229913 -2.8585470170898675 L 2.7000512860229913 -2.630461697252896 L 2.899955624791031 -2.630461697252896 Z M 1.562118296053535 -0.627150401492286 L 1.5595607481403024 -0.5893786157487328 C 1.5724603804276693 -0.5886273360492207 1.5855358441340706 -0.5880678724432009 1.5984354764214372 -0.5880678724432009 L 1.5984354764214372 -0.6260794283036204 C 1.586542878624906 -0.6260794283036204 1.5745863421305435 -0.6262073056992814 1.562118296053535 -0.627150401492286 Z M 1.653950250813042 -0.6288287923103444 C 1.641977729644222 -0.627454110306982 1.6298293770563672 -0.6267028306074698 1.6178089018641741 -0.6262073056992814 L 1.6191675991930787 -0.5887552134448821 C 1.6319553387592416 -0.5891228609574095 1.6449029250699816 -0.5900020180525836 1.6578025573573485 -0.5913767000559456 Z M 1.4901073376215805 -0.6368211295391966 L 1.482626509975375 -0.5999285008908171 L 1.482626509975375 -0.5996887307739511 C 1.4952544027969612 -0.5971738086592726 1.5080421423631238 -0.595090472754952 1.520989728673864 -0.5934387230609897 L 1.526040885802498 -0.6308908153153885 C 1.5141482880059667 -0.6325052674356169 1.5019359967202812 -0.6344553977194565 1.4901073376215805 -0.636821129539197 Z M 1.6902034924831135 -0.6337680567177753 L 1.6902034924831135 -0.6337680567177753 L 1.6902034924831135 -0.6337680567177753 Z M 1.6902034924831135 -0.6337680567177753 L 1.6964375155216178 -0.5963639184867486 L 1.6999541439023127 -0.5970512594884303 C 1.7116069715819784 -0.5993210832614237 1.7232278299127288 -0.6015749223599598 1.734560964103241 -0.6043562557156008 L 1.725769393151504 -0.640993129572657 C 1.7140845961229227 -0.6383236889382209 1.702144044303018 -0.6358300797228189 1.6902034924831135 -0.6337680567177753 Z M 1.4196468926120236 -0.6558588768183213 L 1.4075464940475417 -0.6200851753819809 L 1.4073067239306762 -0.6200851753819809 C 1.4197587853332272 -0.616041052744182 1.4322268314102358 -0.6120928381531292 1.444678892812787 -0.608799995214842 L 1.4546053756510209 -0.6451811142805757 C 1.4429365632968971 -0.6484899418933203 1.431219796919401 -0.6520545242973885 1.4196468926120236 -0.6558588768183218 Z M 1.795670374555041 -0.6624765320438104 C 1.7843372403645295 -0.6581127159168574 1.7726844126848635 -0.6541165473024317 1.7611594624008595 -0.6507277963173981 L 1.7611594624008595 -0.6507277963173981 L 1.772124949078844 -0.6145704626940729 C 1.7844491330857335 -0.6183907998894642 1.7964216542545532 -0.6225627999229246 1.8088897003315623 -0.6270704781199972 Z M 1.3519198269347337 -0.6835123636301483 L 1.3355994743134185 -0.6493690989884937 L 1.3355994743134185 -0.6493690989884937 C 1.3473641947142883 -0.6436785548815513 1.3592727771852773 -0.6385155050317128 1.3711653749818087 -0.633752072043317 L 1.3855515819937418 -0.6685187389888225 C 1.3741065550820262 -0.6732821719772186 1.3630771297062105 -0.6780775743145295 1.3519198269347332 -0.6835123636301486 Z M 1.8625182831371574 -0.691872348371527 C 1.8516806738548346 -0.6864535437303658 1.840651248479019 -0.6811466318104082 1.8296218231032038 -0.6761434287051469 L 1.844695371116818 -0.6418083479699996 C 1.8557088118181757 -0.6464279188882758 1.866594375123872 -0.6517987695060643 1.8776078158252294 -0.6572335588216836 L 1.8798936242726811 -0.6583524860337229 Z M 1.2873896961489848 -0.7184069079713151 L 1.2678883933105864 -0.6864375590559078 C 1.278326385731467 -0.6795161950157225 1.2891639950137899 -0.6734739880707103 1.299985619621655 -0.6674477658001563 L 1.3012164395548982 -0.6667604247984749 L 1.3191512442964415 -0.7001044557172449 C 1.310871182927351 -0.7046600879376903 1.3026071062327185 -0.7094874596239165 1.2942471214913391 -0.714378770007974 Z M 1.8958623140559272 -0.7101428312766822 L 1.8948552795650917 -0.7095354136472896 L 1.8948552795650917 -0.7095354136472896 L 1.913541364006147 -0.6767668310089969 C 1.9247306361265397 -0.6833844862344862 1.9356481687811509 -0.6901300188556372 1.946549716761305 -0.6971792602914841 L 1.9259294867108672 -0.7288928544155682 C 1.9160509578960063 -0.7222432298411643 1.90593265896428 -0.7161690535472371 1.8958623140559272 -0.7101428312766829 Z M 1.2268237646287459 -0.7599830462358024 L 1.2040296188520605 -0.7300757203254389 C 1.2141798871327023 -0.722211260492249 1.2247137876003287 -0.7145865707759242 1.235167764695667 -0.7072975592232111 L 1.2566032131434473 -0.7384996437646483 C 1.2465648375840097 -0.7454476489289306 1.2366383547457758 -0.7526087830859818 1.2268237646287459 -0.7599830462358024 Z M 1.9854883837402704 -0.7720834448002838 C 1.9760254564613104 -0.764218984967094 1.9661788969953649 -0.7568020960187194 1.9563323375294193 -0.7496089925127525 L 1.978519065676712 -0.7190303102751656 C 1.9887812266785576 -0.7265111379213709 1.999075357029319 -0.7345034751502224 2.0091616866121296 -0.7424958123790744 Z M 1.1700781703038983 -0.807281697956147 L 1.1448383693351845 -0.7793085176551657 L 1.1448383693351845 -0.7791167015616736 L 1.1451101088009654 -0.7788769314448083 C 1.154557051405468 -0.7704689926800559 1.1641158867311747 -0.7619491611941003 1.17375464542917 -0.7541646247331986 L 1.1979874119070488 -0.7829370387570651 L 1.1918652815897484 -0.7882439506770225 C 1.1846721780837817 -0.7944939583899846 1.177319227833238 -0.8008878281730656 1.1700781703038983 -0.807281697956147 Z M 2.041051112155248 -0.8206448858027873 C 2.0320197710866457 -0.8120291462700853 2.0230523687158737 -0.8038449929477411 2.013877165577152 -0.795660839625397 L 2.0136853494836595 -0.7958047016955161 L 2.0386054569632193 -0.767335996486346 C 2.046230146679544 -0.7738417589906315 2.0534712042088836 -0.7806352456351553 2.06080816978497 -0.7874926709775099 L 2.0670741621723896 -0.793359046503487 Z M 1.1178082848272077 -0.8592318899436835 L 1.0902027520387536 -0.833656410811358 C 1.0991328568357908 -0.8243213609280591 1.1080842745321047 -0.8151248448900603 1.1170570051276958 -0.8060668626973615 L 1.1434796720062796 -0.832905131111846 C 1.1349118864969505 -0.841313069876598 1.1262801622897904 -0.8502485028984543 1.1178082848272077 -0.8592318899436835 Z M 2.0924578252112225 -0.8737140050023628 C 2.0841138251443017 -0.8645388018636408 2.0756419476817185 -0.8555394301439541 2.067154085544678 -0.8466839204943861 L 2.067154085544678 -0.8465560430987245 L 2.0943280321227737 -0.8201493608945984 L 2.100418193091159 -0.8266231540499684 C 2.107259633759056 -0.8338801962537659 2.113973197031292 -0.8410093610619016 2.120622821605696 -0.8484262500102759 Z M 1.0398670121714453 -0.8915688863716176 L 1.0517116559446036 -0.8774544188254654 L 1.0522071808527924 -0.8774544188254654 C 1.0559316100014375 -0.8724512157202045 1.0601995180816441 -0.8675599053361469 1.0642276560449855 -0.8627964723477513 L 1.0646592422553436 -0.8622849627651046 L 1.0931279474645137 -0.8868214380576793 C 1.0886522386163566 -0.8918086564884831 1.0846081159785577 -0.8966839821980821 1.0806758860619627 -0.9014953692098513 L 1.0690230583822968 -0.9155458980581725 Z M 2.14036389456096 -0.9309551242353993 L 2.1161311280830817 -0.9018630167223787 L 2.1451592968982713 -0.8777581276401618 L 2.169136308584827 -0.9069141738510131 Z M 2.568849078074161 -0.9386277679750967 L 2.568849078074161 -0.9011756757206975 L 2.6062212469562716 -0.9011756757206975 L 2.6062212469562716 -0.9386277679750967 Z M 2.4933374759359697 -0.9386277679750967 L 2.4933374759359697 -0.9011756757206975 L 2.531029338307235 -0.9011756757206975 L 2.531029338307235 -0.9386277679750967 Z M 2.418017689891271 -0.9386277679750967 L 2.418017689891271 -0.9011756757206975 L 2.4557894756348246 -0.9011756757206975 L 2.4557894756348246 -0.9386277679750967 Z M 2.342697903846572 -0.9386277679750967 L 2.342697903846572 -0.9011756757206975 L 2.3804696895901256 -0.9011756757206975 L 2.3804696895901256 -0.9386277679750967 Z M 2.2672662250806694 -0.9386277679750967 L 2.2672662250806694 -0.9011756757206975 L 2.3049900568008486 -0.9011756757206975 L 2.3049900568008486 -0.9386277679750967 Z M 2.1920103777338014 -0.9011756757206975 L 2.229382546615912 -0.9011756757206975 L 2.229382546615912 -0.9386277679750967 L 2.1920103777338014 -0.9386277679750967 Z M 0.9867659236229551 -0.9386277679750967 L 0.9867659236229551 -0.9011756757206975 L 1.0241380925050658 -0.9011756757206975 L 1.0241380925050658 -0.9386277679750967 Z M 0.911446137578256 -0.9386277679750967 L 0.911446137578256 -0.9011756757206975 L 0.9491379999495209 -0.9011756757206975 L 0.9491379999495209 -0.9386277679750967 Z M 0.8359984741378954 -0.9386277679750967 L 0.8359984741378954 -0.9011756757206975 L 0.873818213904822 -0.9011756757206975 L 0.873818213904822 -0.9386277679750967 Z M 0.7607426267910272 -0.9386277679750967 L 0.7607426267910272 -0.9011756757206975 L 0.798498427860123 -0.9011756757206975 L 0.798498427860123 -0.9386277679750967 Z M 0.6851830706294626 -0.9386277679750967 L 0.6851830706294626 -0.9011756757206975 L 0.7230028103963891 -0.9011756757206975 L 0.7230028103963891 -0.9386277679750967 Z M 0.610055100678256 -0.9386277679750967 L 0.610055100678256 -0.9011756757206975 L 0.6473793155369928 -0.9011756757206975 L 0.6473793155369928 -0.9386277679750967 Z M 0.5621010773051454 -0.9664091321825854 L 0.5621010773051454 -0.9285734077412013 L 0.5998568783742411 -0.9285734077412013 L 0.5998568783742411 -0.9664091321825854 Z M 2.596950135770804 -0.9860063430677299 L 2.596950135770804 -0.9485542508133307 L 2.6346419981420692 -0.9485542508133307 L 2.6346419981420692 -0.9860063430677299 Z M 0.5621010773051451 -1.042064596390896 L 0.5621010773051451 -1.0040530405304768 L 0.5998568783742408 -1.0042448566239695 L 0.5998568783742408 -1.042064596390896 Z M 2.596950135770804 -1.061917562067364 L 2.596950135770804 -1.0241457763238104 L 2.6346419981420692 -1.0241457763238104 L 2.6346419981420692 -1.0619175620673642 Z M 0.5621010773051451 -1.117160596993187 L 0.5621010773051451 -1.079708504738788 L 0.5998568783742408 -1.079708504738788 L 0.5998568783742408 -1.117160596993187 Z M 2.596950135770804 -1.1370775013674856 L 2.596950135770804 -1.0996094244386285 L 2.6346419981420692 -1.0996094244386285 L 2.6346419981420692 -1.1370775013674854 Z M 2.793817386391881 -1.129085164138634 L 2.815668436375561 -1.129085164138634 L 2.8343545208166168 -1.1289572867429722 L 2.8343545208166168 -1.163596076292816 L 2.815668436375561 -1.163596076292816 L 2.815668436375561 -1.1665372563930334 L 2.793817386391881 -1.1665372563930334 Z M 2.71836972295152 -1.1665372563930334 L 2.71836972295152 -1.129085164138634 L 2.7560615853227852 -1.129085164138634 L 2.7560615853227852 -1.1665372563930334 Z M 2.643113875604652 -1.1665372563930334 L 2.643113875604652 -1.129085164138634 L 2.680486044486763 -1.129085164138634 L 2.680486044486763 -1.1665372563930334 Z M 0.5360140885901731 -1.1665372563930334 L 0.5360140885901731 -1.129085164138634 L 0.573386257472284 -1.129085164138634 L 0.573386257472284 -1.1665372563930334 Z M 0.4606943025454741 -1.129085164138634 L 0.4984501036145698 -1.129085164138634 L 0.4984501036145698 -1.1665372563930334 L 0.460502486451981 -1.1665372563930334 Z M 0.3853105778029442 -1.1665372563930334 L 0.3853105778029442 -1.129085164138634 L 0.4226987313595128 -1.129085164138634 L 0.4226987313595128 -1.1665372563930334 Z M 0.3623246159327666 -1.2192866821034547 L 0.3623246159327666 -1.1814669423365283 L 0.39969678481487747 -1.1814669423365283 L 0.39969678481487747 -1.2192866821034547 Z M 2.7967905358410134 -1.2389638163608878 L 2.7967905358410134 -1.2014957394320307 L 2.8345303522356518 -1.2014957394320307 L 2.8345303522356518 -1.238867908314142 Z M 0.3623246159327664 -1.2949101769628502 L 0.3623246159327664 -1.2569465751258042 L 0.39969678481487725 -1.2569465751258042 L 0.39969678481487725 -1.2948142689161044 Z M 2.7967905358410134 -1.3148270813371485 L 2.7967905358410134 -1.2769274181979335 L 2.8345303522356518 -1.2769274181979335 L 2.8345303522356518 -1.314795111988234 Z M 0.3623246159327664 -1.3703738250776685 L 0.3623246159327664 -1.332538100636284 L 0.39969678481487725 -1.332538100636284 L 0.39969678481487725 -1.3703738250776685 Z M 2.7967905358410134 -1.3902907294519669 L 2.7967905358410134 -1.3523590969638373 L 2.8345303522356518 -1.3523590969638373 L 2.8345303522356518 -1.3901948214052218 Z M 0.3623246159327664 -1.4459173965647754 L 0.3623246159327664 -1.4080816721233909 L 0.39969678481487725 -1.4080816721233909 L 0.39969678481487725 -1.4459173965647754 Z M 2.7967905358410134 -1.466569595964128 L 2.7967905358410134 -1.4278706991020278 L 2.8345303522356518 -1.4278706991020278 L 2.8345303522356518 -1.4564193276834874 L 2.8269376318682427 -1.4564193276834874 L 2.813110888462329 -1.4771994044785017 L 2.8052464286291388 -1.4720203699542058 Z M 0.3164006462157843 -1.4766878948958544 C 0.32231497576513457 -1.4726277875835976 0.32803748922099246 -1.4686955576670024 0.3339837881192582 -1.4648912051460692 L 0.3339837881192582 -1.4652588526585963 L 0.34817817903769893 -1.455891833426382 L 0.3687984090881365 -1.487109902642277 L 0.3547318955653574 -1.4964769218744913 C 0.34899339743504176 -1.5001533969997634 0.34338277670038786 -1.5038298721250347 0.3377721559657339 -1.5078899794372917 Z M 2.8688014942729683 -1.5146514967329001 C 2.8606333256250815 -1.5089769373004156 2.8525930343728567 -1.5034622246125076 2.8445687277950893 -1.4980913739947193 L 2.8445687277950893 -1.4977716805055654 L 2.865252896543358 -1.466569595964128 C 2.875722858313154 -1.4734909600043138 2.8862407741063225 -1.4806201248124498 2.897014444690815 -1.488356707249978 L 2.8749715786136423 -1.5189353894875648 Z M 0.2787727225423495 -1.5520556349639274 L 0.25479571085579433 -1.5227237573340415 C 0.2650738565320977 -1.5144756653138662 0.27516018611490856 -1.5066112054806764 0.2854383317912119 -1.4990025004388097 L 0.3079287687532008 -1.5293733819084465 C 0.29816213265954394 -1.5366943628100744 0.28844345058926013 -1.5441751904562795 0.2787727225423495 -1.5520556349639274 Z M 2.907660237879645 -1.5435837575013445 L 2.904942843221835 -1.5414418111240125 L 2.904942843221835 -1.5413299184028082 L 2.928120621185505 -1.5114705465158182 C 2.9382069507683157 -1.5193350063490083 2.9481174489320923 -1.5275830983691834 2.9579640083980374 -1.5359430831105625 L 2.9335394258266665 -1.5647154971344286 C 2.925083533038541 -1.5573785315583426 2.9162759774123472 -1.5504092134947842 2.9076122838562717 -1.5435837575013445 Z M 0.22420104394374973 -1.6015601717594354 L 0.197602545646131 -1.5747698573683244 L 0.19785830043745423 -1.5747698573683244 C 0.2071294116229223 -1.5655467002062293 0.2163525687850173 -1.5566112671843733 0.2258314807384354 -1.5479955276516708 L 0.25075158821799526 -1.5761445393716869 C 0.2415923697537311 -1.5843926313918617 0.23280079880199422 -1.5927526161332406 0.22420104394374973 -1.6015601717594354 Z M 2.986560591002869 -1.6154028998398067 C 2.9783924223549825 -1.606483451492408 2.9697287287989074 -1.5976279418428405 2.960761326428136 -1.5894437885204962 L 2.9868003611197342 -1.5618542404065 C 2.996215334375322 -1.5707097500560678 3.0051827367460935 -1.5799648765670777 3.014214077814696 -1.5894437885204962 Z M 0.17583141903473887 -1.6560679116602044 L 0.1458281850776293 -1.6331458884878576 L 0.14595606247329096 -1.6331458884878576 C 0.1539483997021427 -1.6229156968349274 0.16234035379243705 -1.6128133825776587 0.1708761699528507 -1.6030627311584595 L 0.19897722764949344 -1.62804677733585 C 0.19100087509509944 -1.6373978118936066 0.18328027733202867 -1.6464771069855821 0.17583141903473887 -1.6560679116602044 Z M 3.032996070302498 -1.6711094903249033 C 3.0260747062623126 -1.6611190687888386 3.0187856947095995 -1.6517520495566247 3.0110650969465285 -1.642337076301037 L 3.0404129592508724 -1.6182481718932777 C 3.048820898015625 -1.6284144248483774 3.0566693731743566 -1.6387724938969692 3.0641502008205626 -1.649450256434715 Z M 0.13730835359167337 -1.716537935133697 L 0.10390038397507295 -1.6992265326960039 C 0.11011842233911961 -1.6876855977375422 0.11668812354123581 -1.6761286781046225 0.12370539562816762 -1.6650832680543493 L 0.1555468671479131 -1.6853838046156326 C 0.1488333038756775 -1.6956299809430204 0.14283905095403882 -1.7060519886894432 0.13730835359167337 -1.716537935133697 Z M 3.0688976491345 -1.733449720709947 C 3.063938015745644 -1.722588277555678 3.0584267779779113 -1.7119872809976084 3.052385480419692 -1.70168817256249 L 3.052385480419692 -1.701496356468998 L 3.085218001755816 -1.6827623180045697 C 3.091771718283474 -1.6943831763353199 3.0978618792518593 -1.7060519886894436 3.10321674519519 -1.7182323106262136 Z M 0.1118927212039248 -1.78277842608642 L 0.07555955616156451 -1.7735232995754098 C 0.07883354209965487 -1.7606243015952847 0.08280897987132563 -1.747913573042104 0.08746813863255398 -1.735447805017159 L 0.12279426918407854 -1.7489388702594615 C 0.11854234577832934 -1.7601121577053966 0.11486587065305764 -1.771349383849162 0.1118927212039248 -1.78277842608642 Z M 3.0901572661632457 -1.801064893666033 C 3.08797015111708 -1.7894708541295672 3.085060597740498 -1.7780248313049953 3.081445618583798 -1.7667937516287169 L 3.117379166764715 -1.7553007706936277 C 3.121565958801271 -1.7680090775866404 3.1248142474245566 -1.7810075746597531 3.1270978488349996 -1.7941914836492217 Z M 0.06616056758043487 -1.8531749323981468 L 0.06616056758043487 -1.848507407456497 L 0.06603269018477331 -1.8483795300608357 C 0.06613542143372941 -1.8365121678807521 0.06683965072236075 -1.8246576415221267 0.06814266721319018 -1.8128615834158182 L 0.10549885142084336 -1.8172893382406021 C 0.10435916767767328 -1.8276554037862125 0.10382543777030073 -1.8380791488771977 0.10390038397507295 -1.8485074074564973 L 0.10390038397507295 -1.852551530094296 Z M 3.094329266196707 -1.841985660277754 C 3.0942333581499604 -1.839939621947168 3.094137450103214 -1.8379255529654972 3.094137450103214 -1.8359274686582845 L 3.0943932048945375 -1.8359274686582845 L 3.1322768833592947 -1.8339933230489023 L 3.1322768833592947 -1.8483795300608357 C 3.1322768833592947 -1.857107162314742 3.1317653737766484 -1.8658507792431056 3.1312218948450865 -1.8745304574736386 L 3.0935140477993635 -1.8709658750695706 C 3.0941374501032137 -1.8635969401445691 3.094521082290199 -1.8559882351027024 3.094521082290199 -1.8483795300608357 C 3.094521082290199 -1.8462855377068763 3.0944251742434523 -1.8441755606784596 3.0943292661967066 -1.8420655836500424 Z M 0.106537855260594 -1.8876698598778705 L 0.1067776253774596 -1.8876698598778705 L 0.10652187058613638 -1.8876698598778705 Z M 0.06938947182089106 -1.893248511263609 L 0.106537855260594 -1.8876698598778705 C 0.10826495705137495 -1.8992674419428126 0.11080206915553126 -1.910729847364959 0.11413057562800333 -1.9219729712641027 L 0.07786134928347388 -1.932394979010525 C 0.07423097238870457 -1.9195338078602315 0.07140158417242004 -1.9064598989136645 0.06938947182089106 -1.893248511263609 Z M 3.1139584464307664 -1.9523918067571122 L 3.0783765610879184 -1.9399077760056458 L 3.0783765610879184 -1.9399077760056458 C 3.0823699036077317 -1.928727055823089 3.0857214850971184 -1.9173274092286146 3.0884149366473563 -1.9057645113639914 L 3.1250358258299546 -1.9140126033841662 C 3.1221378614728406 -1.9270322198701604 3.118438355782085 -1.9398603759666777 3.1139584464307664 -1.9524237761060284 Z M 0.10858389359118004 -2.005988420213792 C 0.10228593185484491 -1.9943835465574993 0.09643554100332541 -1.9822671633185602 0.0912565064790295 -1.9702147187774517 L 0.12621498951802712 -1.9555567722997376 C 0.13074673189369646 -1.9665782132478395 0.1359460638005131 -1.9773131788172522 0.14178406243983022 -1.987701952634179 Z M 3.0796233656956193 -2.023843301583047 L 3.0473662926399734 -2.004118213302241 L 3.0471744765464814 -2.003750565789714 C 3.053475703550386 -1.9936702375924653 3.0592330869160027 -1.9832599920444405 3.0644219402863433 -1.9725644659227348 L 3.098309450136675 -1.9893004200799496 C 3.0927335907697238 -2.001156085901549 3.0864950350885905 -2.0126886084224465 3.0796233656956193 -2.023843301583047 Z M 0.15231796290745692 -2.070902183186526 C 0.14408585556173958 -2.0609277463249196 0.13633328844975345 -2.0503778611828345 0.12914018494378687 -2.039700098645089 L 0.12926806233944843 -2.0395082825515964 L 0.16040620818305484 -2.0182166961739356 C 0.16708780210637497 -2.028271056407831 0.17418499756559536 -2.0379577691291995 0.18166582521180064 -2.0474366810826177 Z M 3.0330919783492445 -2.0873344285290454 L 3.0046872118379055 -2.062670075840809 C 3.012407809600976 -2.0534309340042562 3.020128407364047 -2.0439360373763806 3.0270657560786907 -2.034137431933808 L 3.0574366375483266 -2.0565159761745933 C 3.049875886529833 -2.0670338919677618 3.0416917332074886 -2.077216129597319 3.0330919783492445 -2.0873344285290454 Z M 0.2046038330586052 -2.1288306434212436 C 0.19525279850084853 -2.1195435475613182 0.18628539613007689 -2.110416298445969 0.17742988648050917 -2.1008095090968895 L 0.17742988648050917 -2.100553754305566 L 0.20527518938582878 -2.0755856928026333 C 0.213507296731546 -2.0845211258244896 0.22204311289195977 -2.0931688347061073 0.2307068064480351 -2.101752604889894 Z M 2.979159686728953 -2.1430090496652268 L 2.953584207596627 -2.1149879153408726 C 2.96267948736306 -2.106995578112021 2.971471058314797 -2.0985077159749803 2.9798789970795494 -2.089572282953124 L 3.0069090815875263 -2.1161068425529117 C 2.9978297864955503 -2.1253459843894644 2.988606629333456 -2.1343933101325243 2.9791437020544946 -2.1430090496652268 Z M 0.25877589479576246 -2.1766727740731504 C 0.25022409396089107 -2.169687471335134 0.24156040040481574 -2.162622245224829 0.23299261489548662 -2.1551733869275393 L 0.2579127223750465 -2.1265288502993345 C 0.2675035270496686 -2.134888835040713 0.2765348681182711 -2.142753294873904 0.28612567279289314 -2.150377984590228 L 0.26258024731669594 -2.179773800917945 Z M 2.919824575141957 -2.1924496477629036 L 2.8970304293652713 -2.162302551735675 C 2.906621234039894 -2.1549336168106734 2.9163399161101777 -2.1474368044900105 2.9259307207847995 -2.1393325745399547 L 2.950115533239305 -2.1684086973785175 C 2.9399013262608324 -2.1767846667943545 2.929990828097057 -2.1847130653253752 2.919824575141957 -2.1924496477629036 Z M 0.29335074564777475 -2.203159379649565 L 0.29335074564777475 -2.203159379649565 L 0.29335074564777475 -2.203271272370769 Z M 0.32487252367836617 -2.2253461077968577 C 0.31438657723411256 -2.2182808816865527 0.30387931789058215 -2.210885305637455 0.29335074564777475 -2.203159379649565 L 0.31553747379506725 -2.1727884981799286 C 0.32562380337787816 -2.1800775097326412 0.33572611763514676 -2.1871747051918615 0.3457485085201269 -2.194064099883132 Z M 2.8362247277281676 -2.2048058011187086 L 2.843018214372692 -2.2004419849917554 C 2.8508666895314247 -2.195246965793002 2.8590987968771415 -2.1898281611518406 2.8671870421527395 -2.184137617044898 L 2.8886864292983505 -2.214988038748266 C 2.8802784905335987 -2.220902368297616 2.872110321885712 -2.2265929124045583 2.8637663218187908 -2.232027701720178 L 2.857100712569929 -2.2363915178471307 Z M 0.36318778835348187 -2.2506978014867753 L 0.35639430170895786 -2.2462061079641606 L 0.3561545315920923 -2.2462061079641606 L 0.37693460838710685 -2.2145564525379076 L 0.40060791125896583 -2.2304132495999496 L 0.40060791125896583 -2.2598570199510397 L 0.36318778835348187 -2.2598570199510397 Z M 2.797653708261729 -2.2800456637911193 L 2.797653708261729 -2.2420660772796155 L 2.835409509330825 -2.2420660772796155 L 2.835409509330825 -2.2800296791166614 Z M 0.3631877883534819 -2.3352247600191114 L 0.3631877883534819 -2.297772667764712 L 0.4005759419100504 -2.297772667764712 L 0.4005759419100504 -2.335208775344654 Z M 2.797653708261729 -2.3553814345102757 L 2.797653708261729 -2.3175616947433495 L 2.835409509330825 -2.3175616947433495 L 2.835409509330825 -2.3553654498358183 Z M 0.36318778835348187 -2.4108642395529647 L 0.36318778835348187 -2.3730285151115806 L 0.4005759419100504 -2.3730285151115806 L 0.4005759419100504 -2.4108642395529647 Z M 2.797653708261729 -2.430893036648467 L 2.797653708261729 -2.3931372355793714 L 2.835409509330825 -2.3931372355793714 L 2.835409509330825 -2.430893036648467 Z M 0.3631877883534819 -2.486391826365614 L 0.3631877883534819 -2.4486360252965182 L 0.4005759419100504 -2.4486360252965182 L 0.4005759419100504 -2.486391826365614 Z M 2.797653708261729 -2.506500546833405 L 2.797653708261729 -2.4686648223920207 L 2.835409509330825 -2.4686648223920207 L 2.835409509330825 -2.5064525928100316 Z M 0.3631877883534819 -2.567913666099902 L 0.3631877883534819 -2.5242275508069985 L 0.4005120032122197 -2.5242275508069985 L 0.4005120032122197 -2.549195612309931 L 0.39466161236070013 -2.549195612309931 L 0.39466161236070013 -2.567913666099902 Z M 2.7456395775763616 -2.567913666099902 L 2.708267408694251 -2.567913666099902 L 2.708267408694251 -2.5304296044965873 L 2.7456395775763616 -2.5304296044965873 Z M 2.670319791531663 -2.567913666099902 L 2.632947622649552 -2.567913666099902 L 2.632947622649552 -2.5304296044965873 L 2.670319791531663 -2.5304296044965873 Z M 0.5454770158691329 -2.567913666099902 L 0.508104846987022 -2.567913666099902 L 0.508104846987022 -2.5304296044965873 L 0.5454770158691329 -2.5304296044965873 Z M 0.47034904591792637 -2.567913666099902 L 0.4326571835466614 -2.567913666099902 L 0.4326571835466614 -2.5304296044965873 L 0.47034904591792637 -2.5304296044965873 Z M 2.783523256041119 -2.567913666099902 L 2.783523256041119 -2.5304296044965873 L 2.8167234248897692 -2.530237788403095 L 2.8167234248897692 -2.544288317251416 L 2.835425494005282 -2.544288317251416 L 2.835425494005282 -2.567913666099902 Z M 0.5629802344003183 -2.5881982179867276 L 0.5629802344003183 -2.5507461257323283 L 0.600736035469414 -2.5507461257323283 L 0.600736035469414 -2.5881982179867276 Z M 2.597829292865977 -2.6081151223610264 L 2.597829292865977 -2.570663030106627 L 2.6355051705627845 -2.570663030106627 L 2.6355051705627845 -2.6081151223610264 Z M 0.5629802344003183 -2.62646552863847 L 0.6003524032824291 -2.62646552863847 L 0.6003524032824291 -2.663917620892869 L 0.5629802344003183 -2.663917620892869 Z M 2.597189905887669 -2.683770586569337 L 2.597189905887669 -2.646318494314938 L 2.6348817682589343 -2.646318494314938 L 2.6348817682589343 -2.683770586569337 Z M 0.5623408474220105 -2.7393972536821454 L 0.5623408474220105 -2.7019291767532883 L 0.6000966484911062 -2.7019291767532883 L 0.6000966484911062 -2.7393972536821454 Z M 2.597189905887669 -2.759362112079817 L 2.597189905887669 -2.7219100198254176 L 2.6348817682589343 -2.7219100198254176 L 2.6348817682589343 -2.759362112079817 Z M 2.5582512389087033 -2.795775200494466 L 2.5582512389087033 -2.7583710622634396 L 2.5956234077908147 -2.7583710622634396 L 2.5956234077908147 -2.795775200494466 Z M 2.482867514166174 -2.795775200494466 L 2.482867514166174 -2.7583710622634396 L 2.520255667722742 -2.7583710622634396 L 2.520255667722742 -2.795775200494466 Z M 2.4076116668193053 -2.795775200494466 L 2.4076116668193053 -2.7583710622634396 L 2.444999820375874 -2.7583710622634396 L 2.444999820375874 -2.795775200494466 Z M 2.3321799880534027 -2.795775200494466 L 2.3321799880534027 -2.7583710622634396 L 2.3695521569355136 -2.7583710622634396 L 2.3695521569355136 -2.795775200494466 Z M 2.2567483092874996 -2.795775200494466 L 2.2567483092874996 -2.7583710622634396 L 2.294424186984307 -2.7583710622634396 L 2.294424186984307 -2.795775200494466 Z M 2.1814764772661737 -2.758323108240066 L 2.218864630822742 -2.758323108240066 L 2.218864630822742 -2.795775200494466 L 2.1814764772661737 -2.795775200494466 Z M 1.0337768512030605 -2.758323108240066 L 1.0412576788492658 -2.758323108240066 L 1.0500492498010028 -2.758067353448743 L 1.074953372606105 -2.7880865720803105 L 1.0459092191164572 -2.8122394151859003 L 1.0267276097672131 -2.7890776218966877 L 1.0337608665286024 -2.7833391237663725 Z M 0.9582013103670379 -2.795775200494466 L 0.9582013103670379 -2.7583710622634396 L 0.9958452187149298 -2.7583710622634396 L 0.9958452187149298 -2.795775200494466 Z M 0.8829454630201699 -2.795775200494466 L 0.8829454630201699 -2.7583710622634396 L 0.9203176319022807 -2.7583710622634396 L 0.9203176319022807 -2.795775200494466 Z M 0.8074977995798092 -2.795775200494466 L 0.8074977995798092 -2.7583710622634396 L 0.8448859531363777 -2.7583710622634396 L 0.8448859531363777 -2.795775200494466 Z M 0.7321780135351101 -2.795775200494466 L 0.7321780135351101 -2.7583710622634396 L 0.7698698759063751 -2.7583710622634396 L 0.7698698759063751 -2.795775200494466 Z M 0.6568582274904111 -2.795775200494466 L 0.6568582274904111 -2.7583710622634396 L 0.6942463810469797 -2.7583710622634396 L 0.6942463810469797 -2.795775200494466 Z M 0.581490487422339 -2.795775200494466 L 0.581490487422339 -2.7583710622634396 L 0.6188626563044498 -2.7583710622634396 L 0.6188626563044498 -2.795775200494466 Z M 2.1154437870814 -2.796830189008674 L 2.1163229441765736 -2.795775200494466 L 2.1336343466142664 -2.774675430210297 L 2.162726454127287 -2.798764334618056 L 2.1454150516895942 -2.819800166204394 C 2.1432890899867196 -2.822133928675219 2.1413709290517953 -2.824483675820501 2.139340875395667 -2.82692933101253 L 2.138429748951578 -2.828048258224569 L 2.1096573349277117 -2.803511782931994 C 2.111575495862636 -2.8014497599269506 2.113541610820934 -2.799163951479499 2.1154437870814005 -2.796878143032047 Z M 1.0706534951769824 -2.8418270476071097 Z M 1.096548667798462 -2.8702318141184486 C 1.0878210355445557 -2.861120549677558 1.0790454492672765 -2.8515617143518512 1.0706375105025248 -2.8418270476071097 L 1.0988504609203713 -2.8169868634998383 C 1.1071944609872926 -2.8263538827320525 1.115362629635179 -2.8354651471729437 1.123770568399931 -2.844384595520342 Z M 2.0866394037086184 -2.8848418065727897 L 2.0597851506196765 -2.8584990630664944 C 2.068512782873582 -2.8496915074402995 2.077000645010623 -2.8409159211630204 2.0852807063797134 -2.8315808712797215 L 2.1131260092850326 -2.8569325649696395 C 2.1044783004034158 -2.8666672317143806 2.095766652823967 -2.8759703122487643 2.0866553883830763 -2.8848418065727897 Z M 1.1516318559797085 -2.9239083509474173 C 1.1422328673985789 -2.915548366206038 1.1328178941429912 -2.906676871882013 1.1235307982830656 -2.8976934848367835 L 1.123354966864031 -2.897885300930276 L 1.1496337716724958 -2.8707113543521796 C 1.1584253426242328 -2.87919921648922 1.167520622390666 -2.8876231399284302 1.1765519634592683 -2.895679415855113 Z M 2.030341380268587 -2.9374633548875497 L 2.005852858999385 -2.9086909408636834 C 2.015155939533768 -2.9006986036348317 2.024235234625744 -2.892594373684776 2.0332186216709736 -2.8841065115477353 L 2.05906584026908 -2.9117599983595626 C 2.0495389742922883 -2.9205995233346727 2.0400600623388705 -2.929087385471713 2.030341380268587 -2.9374633548875497 Z M 1.2111268143112808 -2.9724058532520896 C 1.2008486686349775 -2.9647971482102227 1.1907623390521667 -2.956932688377033 1.1807559328416442 -2.9486845963568578 L 1.2046210518069955 -2.9193527187269717 C 1.2140839790859559 -2.927217178560162 1.2238026611562396 -2.9348418682764863 1.2335852819243542 -2.942146864503657 Z M 1.9475567512521401 -2.9537037841365765 L 1.9474288738564787 -2.9534959833686263 L 1.9474288738564787 -2.9537517381599496 Z M 1.9691680311189552 -2.984714052584521 L 1.9475567512521401 -2.9537037841365765 C 1.9576270961604934 -2.94671848139856 1.967457670951981 -2.939317577124643 1.9770804449755186 -2.931900688176269 L 2.000322161637019 -2.9617440753888014 L 1.998132261236314 -2.963342542834572 C 1.988381609817115 -2.9706635237362 1.9789026978636968 -2.9777447345209627 1.9691680311189552 -2.984714052584521 Z M 1.2442310751131849 -2.995903324704914 L 1.2426326076674146 -2.994880305539621 L 1.2426326076674146 -2.994880305539621 L 1.2635725312070063 -2.963294588811199 C 1.2739785542789712 -2.970359814921504 1.2842087459319016 -2.976593837960008 1.2947586310739856 -2.982795891649597 L 1.2753532362823337 -3.015228796124277 C 1.2648672898380802 -3.0092345432026386 1.2544932361150305 -3.0025049952559453 1.2442310751131849 -2.995839386007083 Z M 1.9041903294483906 -3.025602849847327 L 1.8855042450073354 -2.9927703285112037 L 1.8861276473111857 -2.9927703285112037 C 1.8909230496484968 -2.9898291484109865 1.8957184519858075 -2.9869838763575154 1.9005138543231186 -2.9841066349551286 C 1.9060285670110266 -2.980909700063588 1.9116072183967652 -2.9775529184274703 1.9172338238058768 -2.9740362900467754 L 1.937406482971499 -3.0060056389621823 C 1.9268086438060412 -3.012895033653453 1.916082927244922 -3.0189372405984645 1.9054371340560916 -3.024947478194561 Z M 1.3091448380859192 -3.034426390147979 L 1.3091448380859192 -3.034426390147979 L 1.3091448380859192 -3.0345222981947257 Z M 1.3091448380859192 -3.034426390147979 L 1.3267279799893927 -3.0009384971590904 C 1.3376135432950889 -3.006629041266033 1.3485950146475312 -3.0120478459071944 1.359496562627685 -3.016923171616794 L 1.343911505031424 -3.051322191049772 L 1.341481834513853 -3.050171294488817 C 1.3305802865336993 -3.0451361220346405 1.319870554647038 -3.040212842301668 1.3091448380859192 -3.034426390147979 Z M 1.8344172254405144 -3.059522329046574 L 1.8199031410329196 -3.024995432217934 C 1.8309325664087353 -3.0202000298806233 1.8420099458079235 -3.015084934054158 1.853183233253858 -3.009522267342877 L 1.8696794172942086 -3.0436015932867013 C 1.8580905283123736 -3.0493880454403897 1.8462298998647575 -3.0547269267092627 1.8344172254405144 -3.059522329046574 Z M 1.379765129840053 -3.066475662435675 L 1.393352103129101 -3.031309378628727 L 1.393463995850305 -3.031053623837404 C 1.4047491760174435 -3.03567319475568 1.4163380649992787 -3.039797240765768 1.427799076585452 -3.0435376545888704 L 1.4163380649992787 -3.079567110816534 C 1.4040618350157623 -3.075411095457531 1.392265145265977 -3.071223110749613 1.379765129840053 -3.066475662435675 Z M 1.76122340109869 -3.085401516993596 L 1.7510091941202177 -3.0491322906490663 L 1.7510091941202177 -3.0491322906490663 C 1.7625181597297641 -3.0456955856406602 1.77417098740943 -3.04214698791105 1.7856959376934345 -3.0380868805987933 L 1.798163983770443 -3.0736687659416413 C 1.78614350857825 -3.0779047046729326 1.773675462501241 -3.081900873287359 1.76122340109869 -3.085401516993596 Z M 1.4916578510439775 -3.0985089500489127 C 1.478870111477815 -3.0961911722525457 1.466354111377433 -3.0933938542224477 1.4535983411601856 -3.0903247967265686 L 1.4535983411601856 -3.090085026609703 L 1.4629333910434847 -3.053320275356985 C 1.4747780348166428 -3.0565172102485256 1.4866066939153435 -3.059010819463927 1.4985632304097056 -3.0610728424689713 Z M 1.6798933774578944 -3.0649411336877352 L 1.6798933774578944 -3.0647013635708698 L 1.6798933774578944 -3.0649890877111083 Z M 1.6853281667735138 -3.102153455825269 L 1.6798933774578944 -3.0649411336877352 C 1.6916580978587643 -3.0631988041718454 1.7036625883764995 -3.0608970110499363 1.7154273087773695 -3.058275524438873 L 1.7237713088442908 -3.095359969180745 C 1.7108876612313817 -3.0978855477450624 1.6977962128505226 -3.100315218262633 1.6853281667735138 -3.1021854251741847 Z M 1.5302768245337894 -3.1044072949238055 L 1.5302768245337894 -3.1044072949238055 L 1.5302768245337894 -3.1046790343895863 Z M 1.5302768245337894 -3.1044072949238055 L 1.5345287479395386 -3.067226942135187 C 1.546693085201851 -3.0685376854407185 1.5588254531152481 -3.0696725973272154 1.5708459283074412 -3.070295999631066 L 1.5689757213958897 -3.1077480918854654 C 1.555964196387319 -3.1071246895816147 1.5431285027977832 -3.1060537163929487 1.5302448551848742 -3.1044392642727208 Z M 1.607306970745463 -3.070839478562628 Z M 1.6077545416302788 -3.108419448212689 L 1.6072750013965476 -3.070711601166966 C 1.6194233539844023 -3.0705837237713047 1.6315717065722568 -3.070024260165285 1.643544227741077 -3.068841394255415 L 1.6468370706793638 -3.106293486509814 C 1.633825545670793 -3.1074763524196842 1.6209898520812573 -3.1083714941893157 1.607722572281363 -3.1083714941893157 Z" fill="#ffffff" transform="matrix(1,0,0,1,0,0)" fill-rule="evenodd"></path><path d=" M 0.9061560627943428 -2.3496659140945706 L 1.5423439852538832 -2.3496659140945706 L 1.5423439852538832 -2.087706181317113 L 1.4354216453447168 -2.087706181317113 L 1.4354216453447168 -2.2427435741854045 L 1.122673801110405 -2.2427435741854045 L 1.122673801110405 -1.9019286157249362 L 1.4354216453447168 -1.9019286157249362 L 1.4354216453447168 -1.7950062758157699 L 1.122673801110405 -1.7950062758157699 L 1.122673801110405 -1.4541913173553018 L 1.2295961410195715 -1.4541913173553018 L 1.2295961410195715 -1.3472689774461353 L 0.9061560627943428 -1.3472689774461353 L 0.9061560627943428 -1.4541913173553018 L 0.9997131102148635 -1.4541913173553018 L 0.9997131102148635 -2.2427435741854045 L 0.9061560627943428 -2.2427435741854045 L 0.9061560627943428 -2.3496659140945706" fill="NA" transform="matrix(1,0,0,1,0,0)" fill-rule="nonzero"></path><path d=" M 2.210619703923103 -1.6626898801781764 L 2.3175420438322694 -1.6626898801781764 L 2.3175420438322694 -1.494287194821239 L 2.1785430019503527 -1.3472689774461353 L 1.8417376312364784 -1.3472689774461353 L 1.7027385893545621 -1.494287194821239 L 1.7027385893545621 -2.202647696719467 L 1.8417376312364784 -2.3496659140945706 L 2.1785430019503527 -2.3496659140945706 L 2.3175420438322694 -2.202647696719467 L 2.3175420438322694 -2.03424501136253 L 2.210619703923103 -2.03424501136253 L 2.210619703923103 -2.147849997516019 L 2.1264183612446343 -2.234724398692217 L 1.8951988011910617 -2.234724398692217 L 1.8256992802501035 -2.163888348502394 L 1.8256992802501035 -1.533046543038312 L 1.8938622719421971 -1.4622104928484891 L 2.12508183199577 -1.4622104928484891 L 2.210619703923103 -1.5490848940246869 L 2.210619703923103 -1.6626898801781764" fill="NA" transform="matrix(1,0,0,1,0,0)" fill-rule="nonzero"></path></mask></defs></svg>